<?xml version="1.0" encoding="UTF-8" standalone="no"?>
<!-- Created with Inkscape (http://www.inkscape.org/) -->

<svg
   width="103.73571mm"
   height="47.383671mm"
   viewBox="0 0 103.73571 47.383671"
   version="1.1"
   id="svg1"
   xmlns="http://www.w3.org/2000/svg"
   xmlns:svg="http://www.w3.org/2000/svg">
  <defs
     id="defs1" />
  <g
     id="layer1"
     transform="translate(-66.370359,-77.722397)">
    <path
       id="rect1"
       style="fill:#313131;fill-opacity:0;stroke:#000000;stroke-width:0.3"
       d="m 69.999862,84.99998 v 0.01344 a 3.4794054,9.999999 0 0 0 -0.10232,-0.0093 l -0.04444,0.0047 a 3.4794054,9.999999 0 0 0 -3.33003,10.381278 3.4794054,9.999999 0 0 0 3.476791,9.594772 v 0.015 H 100.0001 v -0.015 a 3.4794054,9.999999 0 0 1 -3.476793,-9.594772 3.4794054,9.999999 0 0 1 3.33003,-10.381278 l 0.04393,-0.0047 a 3.4794054,9.999999 0 0 1 0.102843,0.0093 v -0.01344 z" />
    <path
       style="fill:#313131;fill-opacity:0;stroke:#000000;stroke-width:0.3"
       id="path2"
       d="m 99.897454,85.004345 a 3.4794054,9.999999 0 0 1 3.580096,9.669201 3.4794054,9.999999 0 0 1 -3.35292,10.320034 3.4794054,9.999999 0 0 1 -3.60139,-9.603674 3.4794054,9.999999 0 0 1 3.330059,-10.381013" />
    <g
       id="g3"
       style="fill:#313131;fill-opacity:0;stroke:#000000;stroke-width:1.13386">
      <path
         id="path8"
         style="fill:#e9e9ff;fill-rule:evenodd;stroke:none;stroke-linejoin:round"
         d="m 199.93509,178.54885 5.52618,-1.97247 v 10.29536 l -5.52618,1.56343 z"
         points="205.46127,176.57638 205.46127,186.87174 199.93509,188.43517 199.93509,178.54885 " />
      <path
         id="path3"
         style="fill:#353564;fill-rule:evenodd;stroke:none;stroke-linejoin:round"
         d="m 179.37037,165.7224 v 12.54621 l 20.56472,10.16656 v -9.88632 z"
         points="179.37037,178.26861 199.93509,188.43517 199.93509,178.54885 179.37037,165.7224 " />
      <path
         id="path4"
         style="fill:#4d4d9f;fill-rule:evenodd;stroke:none;stroke-linejoin:round"
         d="m 179.37037,165.7224 6,-3.21239 20.0909,14.06637 -5.52618,1.97247 z"
         points="185.37037,162.51001 205.46127,176.57638 199.93509,178.54885 179.37037,165.7224 " />
      <path
         id="path7"
         style="fill:#afafde;fill-rule:evenodd;stroke:none;stroke-linejoin:round"
         d="m 179.37037,178.26861 6,-2.54622 20.0909,11.14935 -5.52618,1.56343 z"
         points="185.37037,175.72239 205.46127,186.87174 199.93509,188.43517 179.37037,178.26861 " />
      <path
         id="path6"
         style="fill:#d7d7ff;fill-rule:evenodd;stroke:none;stroke-linejoin:round"
         d="m 185.37037,162.51001 v 13.21238 l 20.0909,11.14935 v -10.29536 z"
         points="185.37037,175.72239 205.46127,186.87174 205.46127,176.57638 185.37037,162.51001 " />
      <path
         id="path5"
         style="fill:#8686bf;fill-rule:evenodd;stroke:none;stroke-linejoin:round"
         d="m 179.37037,165.7224 6,-3.21239 v 13.21238 l -6,2.54622 z"
         points="185.37037,162.51001 185.37037,175.72239 179.37037,178.26861 179.37037,165.7224 " />
    </g>
    <g
       id="g19"
       style="fill:#313131;fill-opacity:0;stroke:#000000;stroke-width:1.13386">
      <path
         id="path24"
         style="fill:#e9e9ff;fill-rule:evenodd;stroke:none;stroke-linejoin:round"
         d="m 197.12508,187.78843 13.7407,-4.03893 v 11.74162 l -13.7407,2.92237 z"
         points="210.86578,183.7495 210.86578,195.49112 197.12508,198.41349 197.12508,187.78843 " />
      <path
         id="path19"
         style="fill:#353564;fill-rule:evenodd;stroke:none;stroke-linejoin:round"
         d="m 176.37037,177.72239 v 13.40782 l 20.75471,7.28328 v -10.62506 z"
         points="176.37037,191.13021 197.12508,198.41349 197.12508,187.78843 176.37037,177.72239 " />
      <path
         id="path20"
         style="fill:#4d4d9f;fill-rule:evenodd;stroke:none;stroke-linejoin:round"
         d="m 176.37037,177.72239 15,-6.61364 19.49541,12.64075 -13.7407,4.03893 z"
         points="191.37037,171.10875 210.86578,183.7495 197.12508,187.78843 176.37037,177.72239 " />
      <path
         id="path23"
         style="fill:#afafde;fill-rule:evenodd;stroke:none;stroke-linejoin:round"
         d="m 176.37037,191.13021 15,-4.7853 19.49541,9.14621 -13.7407,2.92237 z"
         points="191.37037,186.34491 210.86578,195.49112 197.12508,198.41349 176.37037,191.13021 " />
      <path
         id="path22"
         style="fill:#d7d7ff;fill-rule:evenodd;stroke:none;stroke-linejoin:round"
         d="m 191.37037,171.10875 v 15.23616 l 19.49541,9.14621 V 183.7495 Z"
         points="191.37037,186.34491 210.86578,195.49112 210.86578,183.7495 191.37037,171.10875 " />
      <path
         id="path21"
         style="fill:#8686bf;fill-rule:evenodd;stroke:none;stroke-linejoin:round"
         d="m 176.37037,177.72239 15,-6.61364 v 15.23616 l -15,4.7853 z"
         points="191.37037,171.10875 191.37037,186.34491 176.37037,191.13021 176.37037,177.72239 " />
    </g>
    <g
       id="g36"
       style="fill:#000000;fill-opacity:0;stroke:#000000;stroke-width:0.3;stroke-dasharray:none;stroke-opacity:1">
      <path
         id="path42"
         style="fill:#000000;fill-opacity:0;fill-rule:evenodd;stroke:#000000;stroke-width:0.235657;stroke-linejoin:round;stroke-dasharray:none;stroke-opacity:1"
         d="m 219.14661,189.64088 -0.14735,0.81267 v -29.45423 l 0.14735,-0.46172 z"
         points="218.99926,190.45355 218.99926,160.99932 219.14661,160.5376 219.14661,189.64088 " />
      <path
         id="path37"
         style="fill:#000000;fill-opacity:0;fill-rule:evenodd;stroke:#000000;stroke-width:0.235657;stroke-linejoin:round;stroke-dasharray:none;stroke-opacity:1"
         d="m 191.75429,179.00914 v -23.44652 l 27.39232,4.97498 v 29.10328 z"
         points="191.75429,155.56262 219.14661,160.5376 219.14661,189.64088 191.75429,179.00914 " />
      <path
         id="path38"
         style="fill:#000000;fill-opacity:0;fill-rule:evenodd;stroke:#000000;stroke-width:0.235657;stroke-linejoin:round;stroke-dasharray:none;stroke-opacity:1"
         d="m 191.75429,179.00914 -0.38393,0.55014 27.6289,10.89427 0.14735,-0.81267 z"
         points="191.37036,179.55928 218.99926,190.45355 219.14661,189.64088 191.75429,179.00914 " />
      <path
         id="path41"
         style="fill:#000000;fill-opacity:0;fill-rule:evenodd;stroke:#000000;stroke-width:0.235657;stroke-linejoin:round;stroke-dasharray:none;stroke-opacity:1"
         d="m 191.75429,155.56262 -0.38393,0.32288 27.6289,5.11382 0.14735,-0.46172 z"
         points="191.37036,155.8855 218.99926,160.99932 219.14661,160.5376 191.75429,155.56262 " />
      <path
         id="path39"
         style="fill:#000000;fill-opacity:0;fill-rule:evenodd;stroke:#000000;stroke-width:0.235657;stroke-linejoin:round;stroke-dasharray:none;stroke-opacity:1"
         d="m 191.75429,179.00914 -0.38393,0.55014 V 155.8855 l 0.38393,-0.32288 z"
         points="191.37036,179.55928 191.37036,155.8855 191.75429,155.56262 191.75429,179.00914 " />
      <path
         id="path40"
         style="fill:#000000;fill-opacity:0;fill-rule:evenodd;stroke:#000000;stroke-width:0.235657;stroke-linejoin:round;stroke-dasharray:none;stroke-opacity:1"
         d="M 191.37036,179.55928 V 155.8855 l 27.6289,5.11382 v 29.45423 z"
         points="191.37036,155.8855 218.99926,160.99932 218.99926,190.45355 191.37036,179.55928 " />
    </g>
    <path
       style="fill:#000000;fill-opacity:0;stroke:#ff0000;stroke-width:0.3;stroke-dasharray:none;stroke-opacity:1"
       d="m 100,94.999997 h 40 l 25,29.999993"
       id="path43" />
    <path
       style="fill:#000000;fill-opacity:0;stroke:#ff0000;stroke-width:0.3;stroke-dasharray:none;stroke-opacity:1"
       d="M 150,124.99999 140,94.999997 170,125"
       id="path44" />
    <path
       style="fill:#000000;fill-opacity:0;stroke:#ff0000;stroke-width:0.3;stroke-dasharray:none;stroke-opacity:1"
       d="m 140,94.999997 15,29.999993"
       id="path45" />
  </g>
</svg>
