<?xml version="1.0" encoding="UTF-8" standalone="no"?>
<!-- Created with Inkscape (http://www.inkscape.org/) -->

<svg
   width="124.43317mm"
   height="90.126289mm"
   viewBox="0 0 124.43317 90.126289"
   version="1.1"
   id="svg1"
   xmlns="http://www.w3.org/2000/svg"
   xmlns:svg="http://www.w3.org/2000/svg">
  <defs
     id="defs1" />
  <g
     id="layer1"
     transform="translate(-10.567957,-24.873814)">
    <path
       id="rect1"
       style="fill:#000000;fill-opacity:0;stroke:#000000;stroke-width:0.484719;stroke-dasharray:none;stroke-dashoffset:0.113386;stroke-opacity:1"
       d="m 16.656295,50.249516 v 0.01801 a 5.8445803,12.323206 0 0 0 -0.172469,-0.01289 l -0.0749,0.0051 A 5.8445803,12.323206 0 0 0 10.81485,63.05181 5.8445803,12.323206 0 0 0 16.656295,74.875712 v 0.0207 h 30.505321 v -0.0207 A 5.8445803,12.323206 0 0 1 41.320171,63.051841 5.8445803,12.323206 0 0 1 46.914249,50.259773 l 0.0749,-0.0051 a 5.8445803,12.323206 0 0 1 0.17249,0.01289 v -0.01801 z" />
    <path
       style="fill:#000000;fill-opacity:0;stroke:#000000;stroke-width:0.465351;stroke-dasharray:none;stroke-dashoffset:0.113386;stroke-opacity:1"
       id="path2"
       d="M 46.996723,50.263385 A 5.8445802,12.323206 0 0 1 53.010441,62.178941 5.8445802,12.323206 0 0 1 47.378318,74.896536 5.8445802,12.323206 0 0 1 41.32884,63.061728 5.8445802,12.323206 0 0 1 46.922553,50.26899" />
    <path
       style="fill:#000000;fill-opacity:0;stroke:#000000;stroke-width:0.467782;stroke-dasharray:none;stroke-dashoffset:0.113386;stroke-opacity:1"
       d="M 47.168975,62.495238 60.343666,62.57881 73.518358,37.534003"
       id="path4" />
    <path
       style="fill:#000000;fill-opacity:0;stroke:#000000;stroke-width:0.467782;stroke-dasharray:none;stroke-dashoffset:0.113386;stroke-opacity:1"
       d="M 73.298777,62.198514 60.343666,62.578793 73.298783,87.112127"
       id="path5" />
    <path
       style="fill:#000000;fill-opacity:0;stroke:#000000;stroke-width:0.467782;stroke-dasharray:none;stroke-dashoffset:0.113386;stroke-opacity:1"
       d="m 86.693042,37.534053 8.78313,0.0464"
       id="path11" />
    <path
       style="fill:#000000;fill-opacity:0;stroke:#000000;stroke-width:0.467782;stroke-dasharray:none;stroke-dashoffset:0.113386;stroke-opacity:1"
       d="m 91.084611,37.557257 4.391561,-2.51457 v 4.982722 z"
       id="path12" />
    <path
       style="fill:#000000;fill-opacity:0;stroke:#000000;stroke-width:0.467782;stroke-dasharray:none;stroke-dashoffset:0.113386;stroke-opacity:1"
       d="m 86.693046,62.447655 8.783132,0.04633"
       id="path13" />
    <path
       style="fill:#000000;fill-opacity:0;stroke:#000000;stroke-width:0.467782;stroke-dasharray:none;stroke-dashoffset:0.113386;stroke-opacity:1"
       d="m 91.084616,62.470859 4.391562,-2.514569 v 4.982718 z"
       id="path14" />
    <path
       style="fill:#000000;fill-opacity:0;stroke:#000000;stroke-width:0.467782;stroke-dasharray:none;stroke-dashoffset:0.113386;stroke-opacity:1"
       d="m 86.693046,87.361256 8.783132,0.04633"
       id="path15" />
    <path
       style="fill:#000000;fill-opacity:0;stroke:#000000;stroke-width:0.467782;stroke-dasharray:none;stroke-dashoffset:0.113386;stroke-opacity:1"
       d="m 91.084616,87.384461 4.391562,-2.514569 v 4.982718 z"
       id="path16" />
    <path
       style="fill:#000000;fill-opacity:0;stroke:#535353;stroke-width:0.467782;stroke-dasharray:none;stroke-dashoffset:0.113386;stroke-opacity:1"
       d="m 73.518358,35.042687 -8.78313,4.982722 v 54.809917 7.437074 2.52838"
       id="path17" />
    <path
       style="fill:#000000;fill-opacity:0;stroke:#535353;stroke-width:0.467782;stroke-dasharray:none;stroke-dashoffset:0.113386;stroke-opacity:1"
       d="m 73.518358,59.95629 -8.78313,4.982725"
       id="path18" />
    <path
       style="fill:#000000;fill-opacity:0;stroke:#535353;stroke-width:0.467782;stroke-dasharray:none;stroke-dashoffset:0.113386;stroke-opacity:1"
       d="m 73.518358,84.869897 -8.78313,4.98271"
       id="path19" />
    <path
       style="fill:#000000;fill-opacity:0;stroke:#535353;stroke-width:0.467782;stroke-dasharray:none;stroke-dashoffset:0.113386;stroke-opacity:1"
       d="m 60.343666,104.80078 v 9.96543 h 13.174692 v -9.96543 z"
       id="path20" />
    <rect
       style="fill:#000000;fill-opacity:0;stroke:#000000;stroke-width:0.467782;stroke-dasharray:none;stroke-dashoffset:0.113386;stroke-opacity:1"
       id="rect2"
       width="13.174689"
       height="14.948159"
       x="73.518356"
       y="30.059973" />
    <rect
       style="fill:#000000;fill-opacity:0;stroke:#000000;stroke-width:0.467782;stroke-dasharray:none;stroke-dashoffset:0.113386;stroke-opacity:1"
       id="rect3"
       width="13.174689"
       height="14.948159"
       x="73.298775"
       y="54.724434" />
    <rect
       style="fill:#000000;fill-opacity:0;stroke:#000000;stroke-width:0.467782;stroke-dasharray:none;stroke-dashoffset:0.113386;stroke-opacity:1"
       id="rect4"
       width="13.174689"
       height="14.948159"
       x="73.298775"
       y="79.638046" />
    <path
       style="fill:#000000;fill-opacity:0;stroke:#535353;stroke-width:0.467782;stroke-dasharray:none;stroke-dashoffset:0.113386;stroke-opacity:1"
       d="M 108.61656,109.84148 Z"
       id="path23" />
    <path
       style="fill:#000000;fill-opacity:0;stroke:#ff0000;stroke-width:0.467782;stroke-dasharray:none;stroke-dashoffset:0.113386;stroke-opacity:1"
       id="path25"
       d="m -97.766027,-79.63929 a 6.6710701,8.7517424 0 0 1 -7.366933,-5.564494 6.6710701,8.7517424 0 0 1 2.77999,-10.538879"
       transform="scale(-1)" />
    <path
       style="fill:#000000;fill-opacity:0;stroke:#ff0000;stroke-width:0.334748;stroke-dasharray:none;stroke-dashoffset:0.113386;stroke-opacity:1"
       id="path26"
       d="m -99.011332,-57.310055 a 4.4113727,6.7774782 0 0 1 -4.871528,-4.309226 4.4113727,6.7774782 0 0 1 1.83832,-8.161463"
       transform="scale(-1)" />
    <path
       style="fill:#000000;fill-opacity:0;stroke:#ff0000;stroke-width:0.254822;stroke-dasharray:none;stroke-dashoffset:0.113386;stroke-opacity:1"
       id="path27"
       d="m -99.422761,-35.015759 a 3.2001665,5.4138532 0 0 1 -3.533979,-3.442212 3.2001665,5.4138532 0 0 1 1.33358,-6.519381"
       transform="scale(-1)" />
    <path
       style="fill:#000000;fill-opacity:0;stroke:#ff0000;stroke-width:0.574716;stroke-dasharray:none;stroke-dashoffset:0.113386;stroke-opacity:1"
       id="path28"
       d="m -104.65145,-74.751599 a 8.4065399,10.483224 0 0 1 -9.28344,-6.665397 8.4065399,10.483224 0 0 1 3.5032,-12.623935"
       transform="scale(-1)" />
    <path
       style="fill:#000000;fill-opacity:0;stroke:#ff0000;stroke-width:0.422783;stroke-dasharray:none;stroke-dashoffset:0.113386;stroke-opacity:1"
       id="path29"
       d="m -103.79474,-54.277057 a 6.6970048,7.1212997 0 0 1 -7.39558,-4.527833 6.6970048,7.1212997 0 0 1 2.7908,-8.575494"
       transform="scale(-1)" />
    <path
       style="fill:#000000;fill-opacity:0;stroke:#ff0000;stroke-width:0.350213;stroke-dasharray:none;stroke-dashoffset:0.113386;stroke-opacity:1"
       id="path30"
       d="m -104.2152,-32.708205 a 5.1208577,6.3903942 0 0 1 -5.65502,-4.063112 5.1208577,6.3903942 0 0 1 2.13398,-7.695336"
       transform="scale(-1)" />
    <path
       style="fill:#000000;fill-opacity:0;stroke:#ff0000;stroke-width:0.781569;stroke-dasharray:none;stroke-dashoffset:0.113386;stroke-opacity:1"
       id="path31"
       d="m -109.86022,-69.209639 a 12.601954,12.933104 0 0 1 -13.91648,-8.223069 12.601954,12.933104 0 0 1 5.25154,-15.574089"
       transform="scale(-1)" />
    <path
       style="fill:#000000;fill-opacity:0;stroke:#ff0000;stroke-width:0.524985;stroke-dasharray:none;stroke-dashoffset:0.113386;stroke-opacity:1"
       id="path32"
       d="m -110.47656,-49.394809 a 8.0758991,9.1055622 0 0 1 -8.91831,-5.789458 8.0758991,9.1055622 0 0 1 3.36542,-10.964951"
       transform="scale(-1)" />
    <path
       style="fill:#000000;fill-opacity:0;stroke:#ff0000;stroke-width:0.422125;stroke-dasharray:none;stroke-dashoffset:0.113386;stroke-opacity:1"
       id="path33"
       d="m -111.30648,-28.976215 a 6.3375869,7.5017791 0 0 1 -6.99867,-4.769747 6.3375869,7.5017791 0 0 1 2.64102,-9.033669"
       transform="scale(-1)" />
    <path
       style="fill:#000000;fill-opacity:0;stroke:#000000;stroke-width:0.467782;stroke-dasharray:1.87113, 0.467782;stroke-dashoffset:0.280668;stroke-opacity:0.244898"
       d="m 95.476172,87.407591 39.524078,-0.03688"
       id="path34" />
    <path
       style="fill:#000000;fill-opacity:0;stroke:#000000;stroke-width:0.467782;stroke-dasharray:1.87113, 0.467782;stroke-dashoffset:0.28067;stroke-opacity:0.244898"
       d="M 95.476172,62.447644 135.00025,62.298221"
       id="path35" />
    <path
       style="fill:#000000;fill-opacity:0;stroke:#000000;stroke-width:0.467782;stroke-dasharray:1.87113, 0.467782;stroke-dashoffset:0.28067;stroke-opacity:0.244898"
       d="m 95.476172,37.534042 39.524078,-0.07185"
       id="path36" />
    <path
       style="fill:#000000;fill-opacity:0;stroke:#000000;stroke-width:0.467782;stroke-dasharray:none;stroke-dashoffset:0.0600001;stroke-opacity:0.244898"
       d="m 95.476172,37.534042 8.739038,-4.825844 4.43565,-2.64823 8.78314,-4.98272"
       id="path37" />
    <path
       style="fill:#000000;fill-opacity:0;stroke:#000000;stroke-width:0.467782;stroke-dasharray:none;stroke-dashoffset:0.226772;stroke-opacity:0.244898"
       d="m 95.476172,62.493998 8.783128,-4.808176 4.39156,-2.712259 8.78314,-4.98272"
       id="path39" />
    <path
       style="fill:#000000;fill-opacity:0;stroke:#000000;stroke-width:0.467782;stroke-dasharray:none;stroke-dashoffset:0.226772;stroke-opacity:0.244898"
       d="m 95.476172,87.361251 8.783128,-4.839408 4.39156,-2.634673 8.78314,-4.982724"
       id="path40" />
    <text
       xml:space="preserve"
       style="font-size:7.50598px;font-family:Arial;-inkscape-font-specification:Arial;text-align:start;writing-mode:lr-tb;direction:ltr;text-anchor:start;fill:#000000;fill-opacity:1;stroke:#000000;stroke-width:0.265959;stroke-dasharray:none;stroke-dashoffset:0;stroke-opacity:0.997449"
       x="59.703316"
       y="122.05374"
       id="text41"
       transform="scale(1.0858881,0.92090524)"><tspan
         id="tspan41"
         style="fill:#000000;fill-opacity:1;stroke:#000000;stroke-width:0.265959;stroke-dasharray:none;stroke-opacity:0.997449"
         x="59.703316"
         y="122.05374">θ</tspan></text>
    <text
       xml:space="preserve"
       style="font-size:4.33153px;font-family:Arial;-inkscape-font-specification:Arial;text-align:start;writing-mode:lr-tb;direction:ltr;text-anchor:start;fill:#808080;fill-opacity:1;stroke:#808080;stroke-width:0.153479;stroke-dasharray:none;stroke-dashoffset:0;stroke-opacity:0.997449"
       x="78.704025"
       y="111.30456"
       id="text42"
       transform="scale(1.2806014,0.78088311)"><tspan
         id="tspan42"
         style="fill:#808080;fill-opacity:1;stroke:#808080;stroke-width:0.153479;stroke-dasharray:none;stroke-opacity:0.997449"
         x="78.704025"
         y="111.30456">θ</tspan></text>
    <text
       xml:space="preserve"
       style="font-size:4.33153px;font-family:Arial;-inkscape-font-specification:Arial;text-align:start;writing-mode:lr-tb;direction:ltr;text-anchor:start;fill:#808080;fill-opacity:1;stroke:#808080;stroke-width:0.153479;stroke-dasharray:none;stroke-dashoffset:0;stroke-opacity:0.997449"
       x="78.704025"
       y="79.400169"
       id="text43"
       transform="scale(1.2806014,0.78088311)"><tspan
         id="tspan43"
         style="fill:#808080;fill-opacity:1;stroke:#808080;stroke-width:0.153479;stroke-dasharray:none;stroke-opacity:0.997449"
         x="78.704025"
         y="79.400169">θ</tspan></text>
    <text
       xml:space="preserve"
       style="font-size:4.33153px;font-family:Arial;-inkscape-font-specification:Arial;text-align:start;writing-mode:lr-tb;direction:ltr;text-anchor:start;fill:#808080;fill-opacity:1;stroke:#808080;stroke-width:0.153479;stroke-dasharray:none;stroke-dashoffset:0;stroke-opacity:0.997449"
       x="78.704025"
       y="47.495773"
       id="text42-4"
       transform="scale(1.2806014,0.78088311)"><tspan
         id="tspan42-2"
         style="fill:#808080;fill-opacity:1;stroke:#808080;stroke-width:0.153479;stroke-dasharray:none;stroke-opacity:0.997449"
         x="78.704025"
         y="47.495773">θ</tspan></text>
  </g>
</svg>
